<svg xmlns="http://www.w3.org/2000/svg" viewBox="0 0 100 100">
  <!-- Background -->
  <rect width="100" height="100" rx="22" fill="#1a1a0a"/>

  <!-- Lemon body -->
  <path d="M 50 25 C 72 25, 84 36, 84 50 C 84 64, 72 75, 50 75 C 28 75, 16 64, 16 50 C 16 36, 28 25, 50 25 Z"
        fill="#FDD835"/>

  <!-- Right tip -->
  <path d="M 84 50 C 84 46, 93 47, 93 50 C 93 53, 84 54, 84 50 Z" fill="#FDD835"/>

  <!-- Left tip -->
  <path d="M 16 50 C 16 46, 7 47, 7 50 C 7 53, 16 54, 16 50 Z" fill="#FDD835"/>

  <!-- Leaf -->
  <path d="M 52 26 C 55 14, 70 11, 67 20 C 64 27, 52 26, 52 26 Z" fill="#66BB6A"/>

  <!-- Stem -->
  <path d="M 51 26 C 51 22, 53 19, 53 17" stroke="#558B2F" stroke-width="2.5" fill="none" stroke-linecap="round"/>

  <!-- Highlight -->
  <ellipse cx="38" cy="40" rx="13" ry="8" fill="rgba(255,255,255,0.22)" transform="rotate(-20 38 40)"/>
</svg>
